<svg width="26" height="15" viewBox="0 0 26 15" xmlns="http://www.w3.org/2000/svg">
<path d="M5.77778 2.88889V0H26V2.88889H5.77778ZM5.77778 8.66667V5.77778H26V8.66667H5.77778ZM5.77778 14.4444V11.5556H26V14.4444H5.77778ZM1.44444 2.88889C1.03519 2.88889 0.69213 2.75046 0.415278 2.47361C0.138426 2.19676 0 1.8537 0 1.44444C0 1.03519 0.138426 0.69213 0.415278 0.415278C0.69213 0.138426 1.03519 0 1.44444 0C1.8537 0 2.19676 0.138426 2.47361 0.415278C2.75046 0.69213 2.88889 1.03519 2.88889 1.44444C2.88889 1.8537 2.75046 2.19676 2.47361 2.47361C2.19676 2.75046 1.8537 2.88889 1.44444 2.88889ZM1.44444 8.66667C1.03519 8.66667 0.69213 8.52824 0.415278 8.25139C0.138426 7.97454 0 7.63148 0 7.22222C0 6.81296 0.138426 6.46991 0.415278 6.19306C0.69213 5.9162 1.03519 5.77778 1.44444 5.77778C1.8537 5.77778 2.19676 5.9162 2.47361 6.19306C2.75046 6.46991 2.88889 6.81296 2.88889 7.22222C2.88889 7.63148 2.75046 7.97454 2.47361 8.25139C2.19676 8.52824 1.8537 8.66667 1.44444 8.66667ZM1.44444 14.4444C1.03519 14.4444 0.69213 14.306 0.415278 14.0292C0.138426 13.7523 0 13.4093 0 13C0 12.5907 0.138426 12.2477 0.415278 11.9708C0.69213 11.694 1.03519 11.5556 1.44444 11.5556C1.8537 11.5556 2.19676 11.694 2.47361 11.9708C2.75046 12.2477 2.88889 12.5907 2.88889 13C2.88889 13.4093 2.75046 13.7523 2.47361 14.0292C2.19676 14.306 1.8537 14.4444 1.44444 14.4444Z"/>
</svg>
